HIERARCHY
ROOT joint_Root
{
  OFFSET 0 0 0
  CHANNELS 6 Xposition Yposition Zposition Zrotation Xrotation Yrotation
  JOINT Hips
  {
    OFFSET 0 93.9241 -3
    CHANNELS 6 Xposition Yposition Zposition Zrotation Xrotation Yrotation
    JOINT Spine
    {
      OFFSET 15.7357 0 0
      CHANNELS 6 Xposition Yposition Zposition Zrotation Xrotation Yrotation
      JOINT Chest
      {
        OFFSET 8.98455 -0.406207 0
        CHANNELS 6 Xposition Yposition Zposition Zrotation Xrotation Yrotation
        JOINT Neck
        {
          OFFSET 16.3773 0 0
          CHANNELS 6 Xposition Yposition Zposition Zrotation Xrotation Yrotation
          JOINT Head
          {
            OFFSET 6.45672 0 0
            CHANNELS 6 Xposition Yposition Zposition Zrotation Xrotation Yrotation
            End Site
            {
              OFFSET 0 0 0
            }
          }
        }
        JOINT Shoulder_L
        {
          OFFSET 12.9942 -0.242716 4.98039
          CHANNELS 6 Xposition Yposition Zposition Zrotation Xrotation Yrotation
          JOINT UpperArm_L
          {
            OFFSET 5.34809 0 0
            CHANNELS 6 Xposition Yposition Zposition Zrotation Xrotation Yrotation
            JOINT LowerArm_L
            {
              OFFSET 24.3286 1.87007e-05 0
              CHANNELS 6 Xposition Yposition Zposition Zrotation Xrotation Yrotation
              JOINT Hand_L
              {
                OFFSET 22.2916 0 0
                CHANNELS 6 Xposition Yposition Zposition Zrotation Xrotation Yrotation
                End Site
                {
                  OFFSET 0 0 0
                }
              }
            }
          }
        }
        JOINT Shoulder_R
        {
          OFFSET 12.9945 -0.242716 -4.98039
          CHANNELS 6 Xposition Yposition Zposition Zrotation Xrotation Yrotation
          JOINT UpperArm_R
          {
            OFFSET -5.34813 0 0
            CHANNELS 6 Xposition Yposition Zposition Zrotation Xrotation Yrotation
            JOINT LowerArm_R
            {
              OFFSET -24.3289 0.000322201 0
              CHANNELS 6 Xposition Yposition Zposition Zrotation Xrotation Yrotation
              JOINT Hand_R
              {
                OFFSET -22.2915 -0.000108084 0
                CHANNELS 6 Xposition Yposition Zposition Zrotation Xrotation Yrotation
                End Site
                {
                  OFFSET 0 0 0
                }
              }
            }
          }
        }
      }
    }
    JOINT UpperLeg_L
    {
      OFFSET -2.19248 -6.46944 0
      CHANNELS 6 Xposition Yposition Zposition Zrotation Xrotation Yrotation
      JOINT LowerLeg_L
      {
        OFFSET 39.0811 0 -1.23785e-05
        CHANNELS 6 Xposition Yposition Zposition Zrotation Xrotation Yrotation
        JOINT Foot_L
        {
          OFFSET 40.9854 0 -1.26872e-05
          CHANNELS 6 Xposition Yposition Zposition Zrotation Xrotation Yrotation
          JOINT Toes_L
          {
            OFFSET 11.7543 0 0
            CHANNELS 6 Xposition Yposition Zposition Zrotation Xrotation Yrotation
            End Site
            {
              OFFSET 0 0 0
            }
          }
        }
      }
    }
    JOINT UpperLeg_R
    {
      OFFSET -2.19251 6.46944 0
      CHANNELS 6 Xposition Yposition Zposition Zrotation Xrotation Yrotation
      JOINT LowerLeg_R
      {
        OFFSET -39.0811 -0.00228153 -0.0401928
        CHANNELS 6 Xposition Yposition Zposition Zrotation Xrotation Yrotation
        JOINT Foot_R
        {
          OFFSET -40.9854 0 0
          CHANNELS 6 Xposition Yposition Zposition Zrotation Xrotation Yrotation
          JOINT Toes_R
          {
            OFFSET -11.7543 0 0
            CHANNELS 6 Xposition Yposition Zposition Zrotation Xrotation Yrotation
            End Site
            {
              OFFSET 0 0 0
            }
          }
        }
      }
    }
  }
}
MOTION
Frames:	5
Frame Time:	0.0333333
0 0 0 0 0 -0 -0.0909452 86.545 -10.9368 88.7232 13.1432 2.76171 15.7357 5.1072e-06 -5.51765e-07 67.9756 86.951 -67.8444 8.98455 -0.406207 -4.3199e-07 -2.11098 -2.2975 0.220059 16.3773 -1.3905e-06 -6.99897e-07 -4.13488 -5.04987 -1.29606 6.45672 -1.25837e-06 -1.02172e-07 10.5791 -6.91311 1.36675 12.9942 -0.242716 4.98039 -89.9631 1.10323 -106.918 5.34809 -7.22636e-06 -6.2814e-07 -59.8795 43.4568 -40.77 24.3286 1.87007e-05 4.90208e-06 -16.4756 -27.8144 -32.3675 22.2916 -9.88446e-07 4.63217e-06 34.7617 5.17632 3.30743 12.9945 -0.242716 -4.98039 89.9644 2.11778 -104.036 -5.34813 -1.25947e-06 -3.79883e-06 -77.209 11.8504 -33.2126 -24.3289 0.000322201 -8.65921e-06 -8.97688 -16.0015 -29.8119 -22.2915 -0.000108084 -4.47941e-06 43.9698 5.519 -7.31894 -2.19248 -6.46944 -1.22534e-07 -175.247 -22.587 -0.358677 39.0811 -6.73843e-06 -1.23785e-05 0.0579765 -0.039132 39.0533 40.9854 -6.48686e-06 -1.26872e-05 -6.06941 -6.01646 -85.5525 11.7543 -2.30145e-07 3.05095e-06 -0.0265205 0.0129265 -16.5773 -2.19251 6.46944 -1.45247e-06 178.816 8.14013 147.785 -39.0811 -0.00228153 -0.0401928 -0.0198872 0.0261896 29.7827 -40.9854 7.72618e-06 5.99936e-06 -0.781669 -4.76978 -45.0973 -11.7543 -5.6619e-06 -5.58687e-06 -0.137771 0.101299 -16.5719 
0 0 0 0 0 -0 -0.106843 86.5814 -10.9566 88.6012 13.2335 2.89661 15.7357 5.1072e-06 -5.51765e-07 67.7673 87.0325 -67.6684 8.98455 -0.406207 -4.3199e-07 -2.27105 -2.25353 0.153264 16.3773 -1.3905e-06 -6.99897e-07 -4.00646 -5.11873 -1.22621 6.45672 -1.25837e-06 -1.02172e-07 10.8852 -7.02213 1.38901 12.9942 -0.242716 4.98039 -89.9672 1.0577 -106.78 5.34809 -7.22636e-06 -6.2814e-07 -59.5694 43.3678 -41.2343 24.3286 1.87007e-05 4.90208e-06 -16.5265 -27.7564 -32.5025 22.2916 -9.88446e-07 4.63217e-06 34.2399 5.15137 3.90981 12.9945 -0.242716 -4.98039 89.9609 2.17145 -103.97 -5.34813 -1.25947e-06 -3.79883e-06 -77.2009 11.5251 -33.5816 -24.3289 0.000322201 -8.65921e-06 -8.78143 -15.9166 -29.397 -22.2915 -0.000108084 -4.47941e-06 43.4625 5.50629 -6.78803 -2.19248 -6.46944 -1.22534e-07 -175.104 -22.4388 -0.255902 39.0811 -6.73843e-06 -1.23785e-05 0.0459611 -0.0245457 38.9956 40.9854 -6.48686e-06 -1.26872e-05 -6.07872 -6.07681 -85.5015 11.7543 -2.30145e-07 3.05095e-06 -0.0232968 0.0113671 -16.5775 -2.19251 6.46944 -1.45247e-06 179.041 8.6088 148.022 -39.0811 -0.00228153 -0.0401928 -0.0177369 0.0238162 29.5128 -40.9854 7.72618e-06 5.99936e-06 -0.660739 -4.39966 -44.9677 -11.7543 -5.6619e-06 -5.58687e-06 -0.130675 0.0959277 -16.572 
0 0 0 0 0 -0 -0.133811 86.6129 -10.9692 88.5242 13.2809 2.8726 15.7357 5.1072e-06 -5.51765e-07 66.9552 87.1425 -66.892 8.98455 -0.406207 -4.3199e-07 -2.50661 -2.24209 0.0772098 16.3773 -1.3905e-06 -6.99897e-07 -3.99199 -5.14256 -1.19917 6.45672 -1.25837e-06 -1.02172e-07 11.16 -7.0582 1.36589 12.9942 -0.242716 4.98039 -89.9674 1.09156 -106.711 5.34809 -7.22636e-06 -6.2814e-07 -59.1283 43.2382 -41.6781 24.3286 1.87007e-05 4.90208e-06 -16.6865 -27.6746 -32.8374 22.2916 -9.88446e-07 4.63217e-06 34.3084 5.12089 4.62985 12.9945 -0.242716 -4.98039 89.9566 2.31008 -103.924 -5.34813 -1.25947e-06 -3.79883e-06 -76.9454 11.3029 -34.1777 -24.3289 0.000322201 -8.65921e-06 -8.61776 -15.9238 -28.8921 -22.2915 -0.000108084 -4.47941e-06 43.0652 5.49213 -6.2173 -2.19248 -6.46944 -1.22534e-07 -175.001 -22.4961 -0.291793 39.0811 -6.73843e-06 -1.23785e-05 0.0525114 -0.0330302 38.9426 40.9854 -6.48686e-06 -1.26872e-05 -6.05979 -5.989 -85.4321 11.7543 -2.30145e-07 3.05095e-06 -0.0286548 0.0140053 -16.5775 -2.19251 6.46944 -1.45247e-06 179.209 8.86327 148.088 -39.0811 -0.00228153 -0.0401928 -0.0167558 0.0216924 29.2821 -40.9854 7.72618e-06 5.99936e-06 -0.570351 -4.22355 -44.8538 -11.7543 -5.6619e-06 -5.58687e-06 -0.132853 0.0974506 -16.572 
0 0 0 0 0 -0 -0.188196 86.6224 -10.9502 88.4235 13.2391 2.85195 15.7357 5.1072e-06 -5.51765e-07 66.4819 87.2351 -66.4377 8.98455 -0.406207 -4.3199e-07 -2.69559 -2.2098 0.0365618 16.3773 -1.3905e-06 -6.99897e-07 -4.05581 -5.12107 -1.18415 6.45672 -1.25837e-06 -1.02172e-07 11.2687 -7.11187 1.25947 12.9942 -0.242716 4.98039 -89.9691 1.07843 -106.642 5.34809 -7.22636e-06 -6.2814e-07 -58.6897 43.0296 -42.2042 24.3286 1.87007e-05 4.90208e-06 -17.0812 -27.8252 -33.3564 22.2916 -9.88446e-07 4.63217e-06 34.1516 5.07985 5.57203 12.9945 -0.242716 -4.98039 89.9524 2.38843 -103.857 -5.34813 -1.25947e-06 -3.79883e-06 -76.7999 11.0451 -34.9042 -24.3289 0.000322201 -8.65921e-06 -8.24603 -15.6755 -28.2048 -22.2915 -0.000108084 -4.47941e-06 42.7775 5.47737 -5.64767 -2.19248 -6.46944 -1.22534e-07 -174.823 -22.7368 -0.340641 39.0811 -6.73843e-06 -1.23785e-05 0.0768172 -0.0634052 38.9929 40.9854 -6.48686e-06 -1.26872e-05 -5.91188 -5.83555 -85.4075 11.7543 -2.30145e-07 3.05095e-06 -0.112978 -0.0715841 -16.5056 -2.19251 6.46944 -1.45247e-06 179.349 8.79396 148.093 -39.0811 -0.00228153 -0.0401928 -0.0167592 0.0219019 29.1886 -40.9854 7.72618e-06 5.99936e-06 -0.535465 -4.23793 -44.8162 -11.7543 -5.6619e-06 -5.58687e-06 -0.150103 0.110239 -16.5717 
0 0 0 0 0 -0 -0.259327 86.618 -10.9158 88.3013 13.2332 2.80448 15.7357 5.1072e-06 -5.51765e-07 66.0716 87.3193 -66.0216 8.98455 -0.406207 -4.3199e-07 -2.86543 -2.17837 0.0456928 16.3773 -1.3905e-06 -6.99897e-07 -4.1549 -5.10123 -1.19968 6.45672 -1.25837e-06 -1.02172e-07 11.2793 -7.13084 1.12311 12.9942 -0.242716 4.98039 -89.9697 1.09148 -106.596 5.34809 -7.22636e-06 -6.2814e-07 -58.0548 43.0084 -43.0302 24.3286 1.87007e-05 4.90208e-06 -17.5882 -28.3881 -33.6916 22.2916 -9.88446e-07 4.63217e-06 34.1493 5.04183 6.41509 12.9945 -0.242716 -4.98039 89.9513 2.40766 -103.841 -5.34813 -1.25947e-06 -3.79883e-06 -76.6029 10.886 -35.511 -24.3289 0.000322201 -8.65921e-06 -8.05182 -15.8565 -27.5981 -22.2915 -0.000108084 -4.47941e-06 42.4397 5.47235 -5.45846 -2.19248 -6.46944 -1.22534e-07 -174.723 -22.7904 -0.521921 39.0811 -6.73843e-06 -1.23785e-05 0.129016 -0.127719 39.1612 40.9854 -6.48686e-06 -1.26872e-05 -5.6303 -5.95836 -85.4371 11.7543 -2.30145e-07 3.05095e-06 -0.212039 -0.189714 -16.4207 -2.19251 6.46944 -1.45247e-06 179.487 8.6193 148.029 -39.0811 -0.00228153 -0.0401928 -0.0166995 0.0232516 29.1806 -40.9854 7.72618e-06 5.99936e-06 -0.518488 -4.43837 -44.8229 -11.7543 -5.6619e-06 -5.58687e-06 -0.17544 0.128944 -16.5713 
